<svg width="256" height="256" viewBox="0 0 256 256" fill="none" xmlns="http://www.w3.org/2000/svg">
  <!-- Background circle -->
  <circle cx="128" cy="128" r="120" fill="#f0fdf4" opacity="0.1"/>
  
  <!-- Happy person 1 -->
  <g transform="translate(40, 60)">
    <circle cx="45" cy="30" r="25" fill="#f59e0b"/>
    <ellipse cx="38" cy="25" rx="4" ry="5" fill="#1a472a"/>
    <ellipse cx="52" cy="25" rx="4" ry="5" fill="#1a472a"/>
    <path d="M35 38 Q45 48 55 38" stroke="#1a472a" stroke-width="3" fill="none"/>
    <rect x="25" y="60" width="40" height="50" rx="8" fill="#22c55e"/>
    <rect x="10" y="70" width="15" height="30" rx="4" fill="#22c55e"/>
    <rect x="65" y="70" width="15" height="30" rx="4" fill="#22c55e"/>
  </g>
  
  <!-- Happy person 2 -->
  <g transform="translate(130, 80)">
    <circle cx="45" cy="30" r="25" fill="#22c55e"/>
    <ellipse cx="38" cy="25" rx="4" ry="5" fill="#1a472a"/>
    <ellipse cx="52" cy="25" rx="4" ry="5" fill="#1a472a"/>
    <path d="M35 38 Q45 48 55 38" stroke="#1a472a" stroke-width="3" fill="none"/>
    <rect x="25" y="60" width="40" height="50" rx="8" fill="#1a472a"/>
    <rect x="10" y="70" width="15" height="30" rx="4" fill="#1a472a"/>
    <rect x="65" y="70" width="15" height="30" rx="4" fill="#1a472a"/>
  </g>
  
  <!-- Checkmark badge -->
  <g transform="translate(160, 40)">
    <circle cx="30" cy="30" r="30" fill="#22c55e"/>
    <path d="M15 30 L25 40 L45 20" stroke="white" stroke-width="5" fill="none" stroke-linecap="round" stroke-linejoin="round"/>
  </g>
  
  <!-- Document with checkmark -->
  <g transform="translate(20, 160)">
    <rect x="0" y="0" width="50" height="60" rx="4" fill="white"/>
    <rect x="8" y="10" width="30" height="5" rx="1" fill="#1a472a"/>
    <rect x="8" y="20" width="25" height="5" rx="1" fill="#e5e7eb"/>
    <rect x="8" y="30" width="28" height="5" rx="1" fill="#e5e7eb"/>
    <circle cx="25" cy="48" r="8" fill="#22c55e"/>
    <path d="M20 48 L24 52 L32 44" stroke="white" stroke-width="2" fill="none"/>
  </g>
  
  <!-- Stars/sparkles -->
  <path d="M200 180 L205 195 L220 195 L208 205 L212 220 L200 210 L188 220 L192 205 L180 195 L195 195 Z" fill="#f59e0b"/>
  <circle cx="50" cy="50" r="5" fill="#f59e0b"/>
  <circle cx="220" cy="100" r="4" fill="#22c55e"/>
</svg>
